<mxfile host="app.diagrams.net" modified="2023-04-09T15:06:19.451Z" agent="Mozilla/5.0 (Windows NT 10.0; Win64; x64) AppleWebKit/537.36 (KHTML, like Gecko) Chrome/111.0.0.0 Safari/537.36" etag="oKFIQFmJMbg3bxE3BF5i" version="21.1.4" type="github" pages="2">
  <diagram name="ProjectBox" id="AlHhxsK1UVl9pyxG0rll">
    <mxGraphModel dx="1050" dy="669" grid="1" gridSize="10" guides="1" tooltips="1" connect="1" arrows="1" fold="1" page="1" pageScale="1" pageWidth="850" pageHeight="1100" math="0" shadow="0">
      <root>
        <mxCell id="0" />
        <mxCell id="1" parent="0" />
        <mxCell id="3aOz5EzQrYfkj7z-Bmd9-50" value="" style="rounded=0;whiteSpace=wrap;html=1;fillColor=default;gradientColor=#9AC7BF;" vertex="1" parent="1">
          <mxGeometry x="400" y="160" width="40" height="170" as="geometry" />
        </mxCell>
        <mxCell id="3aOz5EzQrYfkj7z-Bmd9-51" value="" style="rounded=0;whiteSpace=wrap;html=1;fillColor=default;gradientColor=#9AC7BF;" vertex="1" parent="1">
          <mxGeometry x="440" y="160" width="40" height="170" as="geometry" />
        </mxCell>
        <mxCell id="3aOz5EzQrYfkj7z-Bmd9-52" value="" style="rounded=0;whiteSpace=wrap;html=1;fillColor=default;gradientColor=#9AC7BF;" vertex="1" parent="1">
          <mxGeometry x="480" y="160" width="40" height="170" as="geometry" />
        </mxCell>
        <mxCell id="3aOz5EzQrYfkj7z-Bmd9-53" value="" style="rounded=0;whiteSpace=wrap;html=1;fillColor=default;gradientColor=#CDA2BE;" vertex="1" parent="1">
          <mxGeometry x="520" y="160" width="40" height="90" as="geometry" />
        </mxCell>
        <mxCell id="3aOz5EzQrYfkj7z-Bmd9-54" value="" style="rounded=0;whiteSpace=wrap;html=1;fillColor=default;gradientColor=#CDA2BE;" vertex="1" parent="1">
          <mxGeometry x="560" y="160" width="80" height="90" as="geometry" />
        </mxCell>
        <mxCell id="3aOz5EzQrYfkj7z-Bmd9-55" value="" style="rounded=0;whiteSpace=wrap;html=1;fillColor=default;gradientColor=#CDA2BE;" vertex="1" parent="1">
          <mxGeometry x="640" y="160" width="80" height="90" as="geometry" />
        </mxCell>
        <mxCell id="3aOz5EzQrYfkj7z-Bmd9-49" value="" style="rounded=0;whiteSpace=wrap;html=1;fillColor=default;gradientColor=#9AC7BF;" vertex="1" parent="1">
          <mxGeometry x="320" y="160" width="80" height="170" as="geometry" />
        </mxCell>
        <mxCell id="3aOz5EzQrYfkj7z-Bmd9-47" value="" style="rounded=0;whiteSpace=wrap;html=1;fillColor=default;gradientColor=#9AC7BF;" vertex="1" parent="1">
          <mxGeometry x="280" y="160" width="40" height="170" as="geometry" />
        </mxCell>
        <mxCell id="3aOz5EzQrYfkj7z-Bmd9-46" value="" style="rounded=0;whiteSpace=wrap;html=1;fillColor=default;gradientColor=#CDA2BE;" vertex="1" parent="1">
          <mxGeometry x="200" y="160" width="80" height="90" as="geometry" />
        </mxCell>
        <mxCell id="3aOz5EzQrYfkj7z-Bmd9-45" value="" style="rounded=0;whiteSpace=wrap;html=1;fillColor=default;gradientColor=#CDA2BE;" vertex="1" parent="1">
          <mxGeometry x="120" y="160" width="80" height="90" as="geometry" />
        </mxCell>
        <mxCell id="3aOz5EzQrYfkj7z-Bmd9-17" value="" style="rounded=1;whiteSpace=wrap;html=1;dashed=1;dashPattern=12 12;" vertex="1" parent="1">
          <mxGeometry x="120" width="600" height="100" as="geometry" />
        </mxCell>
        <mxCell id="3aOz5EzQrYfkj7z-Bmd9-2" value="" style="rounded=0;whiteSpace=wrap;html=1;gradientColor=#A9C4EB;" vertex="1" parent="1">
          <mxGeometry x="120" y="250" width="160" height="230" as="geometry" />
        </mxCell>
        <mxCell id="3aOz5EzQrYfkj7z-Bmd9-3" value="" style="rounded=0;whiteSpace=wrap;html=1;gradientColor=#A9C4EB;" vertex="1" parent="1">
          <mxGeometry x="280" y="330" width="240" height="150" as="geometry" />
        </mxCell>
        <mxCell id="3aOz5EzQrYfkj7z-Bmd9-4" value="" style="rounded=0;whiteSpace=wrap;html=1;gradientColor=#A9C4EB;gradientDirection=east;" vertex="1" parent="1">
          <mxGeometry x="520" y="250" width="200" height="230" as="geometry" />
        </mxCell>
        <mxCell id="3aOz5EzQrYfkj7z-Bmd9-15" value="Master Thises-based Project: MTP" style="text;html=1;strokeColor=none;fillColor=none;align=left;verticalAlign=middle;whiteSpace=wrap;rounded=0;" vertex="1" parent="1">
          <mxGeometry x="130" y="2" width="210" height="30" as="geometry" />
        </mxCell>
        <mxCell id="3aOz5EzQrYfkj7z-Bmd9-18" value="Course-based Project: CP" style="text;html=1;strokeColor=none;fillColor=none;align=left;verticalAlign=middle;whiteSpace=wrap;rounded=0;" vertex="1" parent="1">
          <mxGeometry x="345" y="2" width="160" height="30" as="geometry" />
        </mxCell>
        <mxCell id="3aOz5EzQrYfkj7z-Bmd9-19" value="External Project: EP" style="text;html=1;strokeColor=none;fillColor=none;align=left;verticalAlign=middle;whiteSpace=wrap;rounded=0;" vertex="1" parent="1">
          <mxGeometry x="510" y="2" width="160" height="30" as="geometry" />
        </mxCell>
        <mxCell id="3aOz5EzQrYfkj7z-Bmd9-23" value="Personal Project: PP" style="text;html=1;strokeColor=none;fillColor=none;align=left;verticalAlign=middle;whiteSpace=wrap;rounded=0;" vertex="1" parent="1">
          <mxGeometry x="345" y="32" width="160" height="30" as="geometry" />
        </mxCell>
        <mxCell id="3aOz5EzQrYfkj7z-Bmd9-24" value="Other Project: OP" style="text;html=1;strokeColor=none;fillColor=none;align=left;verticalAlign=middle;whiteSpace=wrap;rounded=0;" vertex="1" parent="1">
          <mxGeometry x="345" y="63.5" width="160" height="30" as="geometry" />
        </mxCell>
        <mxCell id="3aOz5EzQrYfkj7z-Bmd9-27" value="Bachelor Thises-based Project: BTP" style="text;html=1;strokeColor=none;fillColor=none;align=left;verticalAlign=middle;whiteSpace=wrap;rounded=0;" vertex="1" parent="1">
          <mxGeometry x="130" y="33" width="210" height="30" as="geometry" />
        </mxCell>
        <mxCell id="3aOz5EzQrYfkj7z-Bmd9-28" value="PhD Thises-based Project: PTP" style="text;html=1;strokeColor=none;fillColor=none;align=left;verticalAlign=middle;whiteSpace=wrap;rounded=0;" vertex="1" parent="1">
          <mxGeometry x="130" y="63.5" width="210" height="30" as="geometry" />
        </mxCell>
        <mxCell id="3aOz5EzQrYfkj7z-Bmd9-29" value="BTP1" style="text;html=1;strokeColor=none;fillColor=none;align=center;verticalAlign=middle;whiteSpace=wrap;rounded=0;" vertex="1" parent="1">
          <mxGeometry x="130" y="190" width="60" height="30" as="geometry" />
        </mxCell>
        <mxCell id="3aOz5EzQrYfkj7z-Bmd9-30" value="BTP2" style="text;html=1;strokeColor=none;fillColor=none;align=center;verticalAlign=middle;whiteSpace=wrap;rounded=0;" vertex="1" parent="1">
          <mxGeometry x="210" y="190" width="60" height="30" as="geometry" />
        </mxCell>
        <mxCell id="3aOz5EzQrYfkj7z-Bmd9-31" value="PTP1" style="text;html=1;strokeColor=none;fillColor=none;align=center;verticalAlign=middle;whiteSpace=wrap;rounded=0;" vertex="1" parent="1">
          <mxGeometry x="170" y="340" width="60" height="30" as="geometry" />
        </mxCell>
        <mxCell id="3aOz5EzQrYfkj7z-Bmd9-32" value="PTP2" style="text;html=1;strokeColor=none;fillColor=none;align=center;verticalAlign=middle;whiteSpace=wrap;rounded=0;" vertex="1" parent="1">
          <mxGeometry x="370" y="400" width="60" height="30" as="geometry" />
        </mxCell>
        <mxCell id="3aOz5EzQrYfkj7z-Bmd9-33" value="PTP3" style="text;html=1;strokeColor=none;fillColor=none;align=center;verticalAlign=middle;whiteSpace=wrap;rounded=0;" vertex="1" parent="1">
          <mxGeometry x="590" y="340" width="60" height="30" as="geometry" />
        </mxCell>
        <mxCell id="3aOz5EzQrYfkj7z-Bmd9-34" value="MTP1" style="text;html=1;strokeColor=none;fillColor=none;align=center;verticalAlign=middle;whiteSpace=wrap;rounded=0;" vertex="1" parent="1">
          <mxGeometry x="270" y="190" width="60" height="30" as="geometry" />
        </mxCell>
        <mxCell id="3aOz5EzQrYfkj7z-Bmd9-35" value="MTP2" style="text;html=1;strokeColor=none;fillColor=none;align=center;verticalAlign=middle;whiteSpace=wrap;rounded=0;" vertex="1" parent="1">
          <mxGeometry x="330" y="190" width="60" height="30" as="geometry" />
        </mxCell>
        <mxCell id="3aOz5EzQrYfkj7z-Bmd9-36" value="MTP3" style="text;html=1;strokeColor=none;fillColor=none;align=center;verticalAlign=middle;whiteSpace=wrap;rounded=0;rotation=-90;" vertex="1" parent="1">
          <mxGeometry x="390" y="240" width="60" height="30" as="geometry" />
        </mxCell>
        <mxCell id="3aOz5EzQrYfkj7z-Bmd9-40" value="MTP4" style="text;html=1;strokeColor=none;fillColor=none;align=center;verticalAlign=middle;whiteSpace=wrap;rounded=0;rotation=-90;" vertex="1" parent="1">
          <mxGeometry x="430" y="240" width="60" height="30" as="geometry" />
        </mxCell>
        <mxCell id="3aOz5EzQrYfkj7z-Bmd9-41" value="MTP5" style="text;html=1;strokeColor=none;fillColor=none;align=center;verticalAlign=middle;whiteSpace=wrap;rounded=0;rotation=-90;" vertex="1" parent="1">
          <mxGeometry x="470" y="240" width="60" height="30" as="geometry" />
        </mxCell>
        <mxCell id="3aOz5EzQrYfkj7z-Bmd9-42" value="BTP3" style="text;html=1;strokeColor=none;fillColor=none;align=center;verticalAlign=middle;whiteSpace=wrap;rounded=0;rotation=-90;" vertex="1" parent="1">
          <mxGeometry x="509" y="187" width="60" height="30" as="geometry" />
        </mxCell>
        <mxCell id="3aOz5EzQrYfkj7z-Bmd9-43" value="BTP4" style="text;html=1;strokeColor=none;fillColor=none;align=center;verticalAlign=middle;whiteSpace=wrap;rounded=0;rotation=0;" vertex="1" parent="1">
          <mxGeometry x="569" y="190" width="60" height="30" as="geometry" />
        </mxCell>
        <mxCell id="3aOz5EzQrYfkj7z-Bmd9-44" value="BTP5" style="text;html=1;strokeColor=none;fillColor=none;align=center;verticalAlign=middle;whiteSpace=wrap;rounded=0;rotation=0;" vertex="1" parent="1">
          <mxGeometry x="650" y="190" width="60" height="30" as="geometry" />
        </mxCell>
      </root>
    </mxGraphModel>
  </diagram>
  <diagram id="O3fBnjHQ5tOwL1DGRZOQ" name="Desing">
    <mxGraphModel dx="1050" dy="669" grid="1" gridSize="10" guides="1" tooltips="1" connect="1" arrows="1" fold="1" page="1" pageScale="1" pageWidth="850" pageHeight="1100" math="0" shadow="0">
      <root>
        <mxCell id="0" />
        <mxCell id="1" parent="0" />
        <mxCell id="4LiFc_LPgD1HJKg1ON3x-7" value="" style="group" vertex="1" connectable="0" parent="1">
          <mxGeometry x="130" y="30" width="570" height="110" as="geometry" />
        </mxCell>
        <mxCell id="4LiFc_LPgD1HJKg1ON3x-1" value="" style="rounded=0;whiteSpace=wrap;html=1;" vertex="1" parent="4LiFc_LPgD1HJKg1ON3x-7">
          <mxGeometry width="570" height="110" as="geometry" />
        </mxCell>
        <mxCell id="4LiFc_LPgD1HJKg1ON3x-4" value="&lt;b&gt;Box&lt;/b&gt;" style="text;html=1;strokeColor=default;fillColor=none;align=center;verticalAlign=middle;whiteSpace=wrap;rounded=0;" vertex="1" parent="4LiFc_LPgD1HJKg1ON3x-7">
          <mxGeometry width="70" height="30" as="geometry" />
        </mxCell>
        <mxCell id="4LiFc_LPgD1HJKg1ON3x-14" value="BigPicture" style="rounded=1;whiteSpace=wrap;html=1;dashed=1;" vertex="1" parent="4LiFc_LPgD1HJKg1ON3x-7">
          <mxGeometry x="225" y="25" width="120" height="60" as="geometry" />
        </mxCell>
        <mxCell id="4LiFc_LPgD1HJKg1ON3x-8" value="" style="group" vertex="1" connectable="0" parent="1">
          <mxGeometry x="130" y="140" width="570" height="100" as="geometry" />
        </mxCell>
        <mxCell id="4LiFc_LPgD1HJKg1ON3x-2" value="" style="rounded=0;whiteSpace=wrap;html=1;" vertex="1" parent="4LiFc_LPgD1HJKg1ON3x-8">
          <mxGeometry width="570" height="100" as="geometry" />
        </mxCell>
        <mxCell id="4LiFc_LPgD1HJKg1ON3x-5" value="&lt;b&gt;Core&lt;/b&gt;" style="text;html=1;strokeColor=default;fillColor=none;align=center;verticalAlign=middle;whiteSpace=wrap;rounded=0;" vertex="1" parent="4LiFc_LPgD1HJKg1ON3x-8">
          <mxGeometry width="70" height="30" as="geometry" />
        </mxCell>
        <mxCell id="4LiFc_LPgD1HJKg1ON3x-10" value="WorkFlow Desing" style="rounded=1;whiteSpace=wrap;html=1;dashed=1;" vertex="1" parent="4LiFc_LPgD1HJKg1ON3x-8">
          <mxGeometry x="140" y="20" width="120" height="60" as="geometry" />
        </mxCell>
        <mxCell id="4LiFc_LPgD1HJKg1ON3x-11" value="Project Managment" style="rounded=1;whiteSpace=wrap;html=1;dashed=1;" vertex="1" parent="4LiFc_LPgD1HJKg1ON3x-8">
          <mxGeometry x="310" y="20" width="120" height="60" as="geometry" />
        </mxCell>
        <mxCell id="4LiFc_LPgD1HJKg1ON3x-9" value="" style="group" vertex="1" connectable="0" parent="1">
          <mxGeometry x="130" y="240" width="570" height="100" as="geometry" />
        </mxCell>
        <mxCell id="4LiFc_LPgD1HJKg1ON3x-3" value="" style="rounded=0;whiteSpace=wrap;html=1;" vertex="1" parent="4LiFc_LPgD1HJKg1ON3x-9">
          <mxGeometry width="570" height="100" as="geometry" />
        </mxCell>
        <mxCell id="4LiFc_LPgD1HJKg1ON3x-6" value="&lt;b&gt;Support&lt;/b&gt;" style="text;html=1;strokeColor=default;fillColor=none;align=center;verticalAlign=middle;whiteSpace=wrap;rounded=0;" vertex="1" parent="4LiFc_LPgD1HJKg1ON3x-9">
          <mxGeometry width="70" height="30" as="geometry" />
        </mxCell>
        <mxCell id="4LiFc_LPgD1HJKg1ON3x-15" value="File Storage&lt;br&gt;oneDrive" style="rounded=1;whiteSpace=wrap;html=1;dashed=1;" vertex="1" parent="4LiFc_LPgD1HJKg1ON3x-9">
          <mxGeometry x="85" y="35" width="120" height="30" as="geometry" />
        </mxCell>
        <mxCell id="4LiFc_LPgD1HJKg1ON3x-16" value="Team Communication&lt;br&gt;Slack, Zoom" style="rounded=1;whiteSpace=wrap;html=1;dashed=1;" vertex="1" parent="4LiFc_LPgD1HJKg1ON3x-9">
          <mxGeometry x="225" y="35" width="120" height="30" as="geometry" />
        </mxCell>
        <mxCell id="4LiFc_LPgD1HJKg1ON3x-17" value="Version Control&lt;br&gt;Github" style="rounded=1;whiteSpace=wrap;html=1;dashed=1;" vertex="1" parent="4LiFc_LPgD1HJKg1ON3x-9">
          <mxGeometry x="365" y="35" width="120" height="30" as="geometry" />
        </mxCell>
        <mxCell id="4LiFc_LPgD1HJKg1ON3x-12" value="" style="rounded=0;whiteSpace=wrap;html=1;" vertex="1" parent="1">
          <mxGeometry x="700" y="30" width="100" height="310" as="geometry" />
        </mxCell>
        <mxCell id="4LiFc_LPgD1HJKg1ON3x-13" value="&lt;b&gt;Bus&lt;/b&gt;" style="text;html=1;strokeColor=default;fillColor=none;align=center;verticalAlign=middle;whiteSpace=wrap;rounded=0;" vertex="1" parent="1">
          <mxGeometry x="730" y="30" width="70" height="30" as="geometry" />
        </mxCell>
        <mxCell id="4LiFc_LPgD1HJKg1ON3x-18" value="Connector" style="rounded=1;whiteSpace=wrap;html=1;dashed=1;rotation=90;" vertex="1" parent="1">
          <mxGeometry x="640" y="160" width="220" height="60" as="geometry" />
        </mxCell>
      </root>
    </mxGraphModel>
  </diagram>
</mxfile>
